# xmcd
#
# Track frame offsets: 
#        150
#        18992
#        39321
#        57021
#        75969
#        92554
#
# Disc length: 1436 seconds
#
# Revision: 0
# Processed by: cddbd v1.5.1PL2 Copyright (c) Steve Scherf et al.
# Submitted via: ExactAudioCopy v0.95b4
#
DISCID=32059a06
DTITLE=Jagged edge - Hard (bonus disc)
DYEAR=2003
DGENRE=R&B
TTITLE0=Walked outta heaven
TTITLE1=What's it like
TTITLE2=Where the party at
TTITLE3=Let's get married
TTITLE4=He can't love u
TTITLE5=I got it 2 ft. Nas
EXTD=
EXTT0=
EXTT1=
EXTT2=
EXTT3=
EXTT4=
EXTT5=
PLAYORDER=
